# xmcd
#
# Track frame offsets:
#	150
#	12860
#	30542
#	51957
#	70767
#	91380
#	108630
#	125007
#	144520
#	164445
#	196095
#
# Disc length: 2847 seconds
#
# Revision: 0
# Processed by: cddbd v1.4PL0 Copyright (c) Steve Scherf et al.
# Submitted via: audiograbber 1.81.01
#
DISCID=940b1d0b
DTITLE=Mark Sallings and the Famous Unknowns - Let It Be Known
DYEAR=2003
DGENRE=Blues
TTITLE0=Marks Harpo
TTITLE1=Blues Acres
TTITLE2=Punishin' Kind of Love
TTITLE3=Mighty Oaks
TTITLE4=Killin' Floor
TTITLE5=Chump Chump
TTITLE6=Just Your Fool
TTITLE7=Woman Pleasin' Man
TTITLE8=Sugar Sweet
TTITLE9=TW Bb Blues
TTITLE10=Playhouse
EXTD=
EXTT0=
EXTT1=
EXTT2=
EXTT3=
EXTT4=
EXTT5=
EXTT6=
EXTT7=
EXTT8=
EXTT9=
EXTT10=
PLAYORDER=
